name Walk8.mot
datacolumns 19
datarows 30
range 1.45000000 1.59500000
endheader

                time	   L_ground_force_vx	   L_ground_force_vy	   L_ground_force_vz	   L_ground_force_px	   L_ground_force_py	   L_ground_force_pz	   R_ground_force_vx	   R_ground_force_vy	   R_ground_force_vz	   R_ground_force_px	   R_ground_force_py	   R_ground_force_pz	   L_ground_torque_x	   L_ground_torque_y	   L_ground_torque_z	   R_ground_torque_x	   R_ground_torque_y	   R_ground_torque_z	
          1.45000000	         16.29682764	        566.07786334	         38.65919510	         -0.29415413	          0.00000000	         -0.09357984	         -0.00835405	          0.24268694	          0.01344365	          0.00014785	          0.00000000	          0.00006931	          0.00000000	          0.13119159	          0.00000000	          0.00000000	         -0.00021125	          0.00000000	
          1.45500000	         18.51116746	        575.85015380	         39.58553676	         -0.29317403	          0.00000000	         -0.09369516	         -0.01659693	          0.31554238	          0.01425940	          0.00018001	          0.00000000	          0.00008368	          0.00000000	          0.12389748	          0.00000000	          0.00000000	         -0.00015458	          0.00000000	
          1.46000000	         20.85085001	        585.93315033	         40.53853755	         -0.29226610	          0.00000000	         -0.09378950	         -0.02740384	          0.39023645	          0.01377287	          0.00020795	          0.00000000	          0.00009576	          0.00000000	          0.11130435	          0.00000000	          0.00000000	         -0.00004714	          0.00000000	
          1.46500000	         23.31915374	        596.28046560	         41.50060735	         -0.29142589	          0.00000000	         -0.09386267	         -0.04087626	          0.45858575	          0.01131561	          0.00022588	          0.00000000	          0.00010279	          0.00000000	          0.09239034	          0.00000000	          0.00000000	          0.00012621	          0.00000000	
          1.47000000	         25.91913185	        606.82680815	         42.45270489	         -0.29064976	          0.00000000	         -0.09391591	         -0.05684368	          0.50861177	          0.00608827	          0.00022597	          0.00000000	          0.00010108	          0.00000000	          0.06632202	          0.00000000	          0.00000000	          0.00038096	          0.00000000	
          1.47500000	         28.65426538	        617.48540887	         43.37551568	         -0.28993507	          0.00000000	         -0.09395021	         -0.07473253	          0.52389521	         -0.00281399	          0.00019826	          0.00000000	          0.00008594	          0.00000000	          0.03245427	          0.00000000	          0.00000000	          0.00073123	          0.00000000	
          1.48000000	         31.52782429	        628.14979052	         44.25126839	         -0.28927963	          0.00000000	         -0.09396692	         -0.09341142	          0.48311691	         -0.01634895	          0.00013059	          0.00000000	          0.00005174	          0.00000000	         -0.00942205	          0.00000000	          0.00000000	          0.00118725	          0.00000000	
          1.48500000	         34.53997366	        638.69640573	         45.06550414	         -0.28867952	          0.00000000	         -0.09396854	         -0.11101864	          0.35994617	         -0.03543881	          0.00000896	          0.00000000	         -0.00000798	          0.00000000	         -0.05879535	          0.00000000	          0.00000000	          0.00175194	          0.00000000	
          1.49000000	         37.68466550	        648.98848267	         45.80868481	         -0.28812914	          0.00000000	         -0.09395762	         -0.12478328	          0.12348475	         -0.06083654	         -0.00018182	          0.00000000	         -0.00010012	          0.00000000	         -0.11443011	          0.00000000	          0.00000000	          0.00241644	          0.00000000	
          1.49500000	         40.94986160	        658.88152276	         46.47624325	         -0.28762086	          0.00000000	         -0.09393638	         -0.13085830	         -0.26047753	         -0.09293840	         -0.00045688	          0.00000000	         -0.00023146	          0.00000000	         -0.17462719	          0.00000000	          0.00000000	          0.00315464	          0.00000000	
          1.50000000	         44.32097827	        668.22750883	         47.06802304	         -0.28714516	          0.00000000	         -0.09390623	         -0.12419306	         -0.82709632	         -0.13153548	         -0.00082946	          0.00000000	         -0.00040772	          0.00000000	         -0.23736963	          0.00000000	          0.00000000	          0.00391671	          0.00000000	
          1.50500000	         47.78448385	        676.87931476	         47.58710397	         -0.28669141	          0.00000000	         -0.09386781	         -0.09848292	         -1.60866597	         -0.17550095	         -0.00130816	          0.00000000	         -0.00063229	          0.00000000	         -0.30025401	          0.00000000	          0.00000000	          0.00462204	          0.00000000	
          1.51000000	         51.33026897	        684.69270421	         48.03874037	         -0.28624953	          0.00000000	         -0.09382234	         -0.04624534	         -2.62903613	         -0.22241563	         -0.00189331	          0.00000000	         -0.00090450	          0.00000000	         -0.36053637	          0.00000000	          0.00000000	          0.00515188	          0.00000000	
          1.51500000	         54.95196760	        691.52754588	         48.42936595	         -0.28581132	          0.00000000	         -0.09377172	          0.04091623	         -3.89594669	         -0.26814333	         -0.00257227	          0.00000000	         -0.00121742	          0.00000000	         -0.41535624	          0.00000000	          0.00000000	          0.00534273	          0.00000000	
          1.52000000	         58.64434123	        697.25110223	         48.76643091	         -0.28537047	          0.00000000	         -0.09371900	          0.17178809	         -5.39106167	         -0.30638057	         -0.00331380	          0.00000000	         -0.00155525	          0.00000000	         -0.46180561	          0.00000000	          0.00000000	          0.00498143	          0.00000000	
          1.52500000	         62.40111607	        701.74293068	         49.05811101	         -0.28492199	          0.00000000	         -0.09366722	          0.35468072	         -7.05764436	         -0.32822163	         -0.00406145	          0.00000000	         -0.00189025	          0.00000000	         -0.49714449	          0.00000000	          0.00000000	          0.00380368	          0.00000000	
          1.53000000	         66.21441894	        704.89733504	         49.31163233	         -0.28446132	          0.00000000	         -0.09361917	          0.59613768	         -8.78607386	         -0.32180119	         -0.00472641	          0.00000000	         -0.00217953	          0.00000000	         -0.51903709	          0.00000000	          0.00000000	          0.00149801	          0.00000000	
          1.53500000	         70.07512386	        706.62298431	         49.53154885	         -0.28398579	          0.00000000	         -0.09357663	          0.89914026	        -10.39778214	         -0.27210216	         -0.00518045	          0.00000000	         -0.00236181	          0.00000000	         -0.52595666	          0.00000000	          0.00000000	         -0.00228214	          0.00000000	
          1.54000000	         73.97376812	        706.83695180	         49.71783690	         -0.28349413	          0.00000000	         -0.09354127	          1.26074708	        -11.62870881	         -0.16104467	         -0.00524958	          0.00000000	         -0.00235479	          0.00000000	         -0.51688479	          0.00000000	          0.00000000	         -0.00789538	          0.00000000	
          1.54500000	         77.90055031	        705.46340572	         49.86353105	         -0.28298532	          0.00000000	         -0.09351649	          1.66914391	        -12.11404455	          0.03199746	         -0.00470994	          0.00000000	         -0.00205342	          0.00000000	         -0.49136829	          0.00000000	          0.00000000	         -0.01567484	          0.00000000	
          1.55000000	         81.84404540	        702.43341645	         49.95327284	         -0.28245913	          0.00000000	         -0.09350617	          2.10013733	        -11.37686540	          0.32907726	         -0.00328759	          0.00000000	         -0.00133024	          0.00000000	         -0.45010561	          0.00000000	          0.00000000	         -0.02587281	          0.00000000	
          1.55500000	         85.79043003	        697.67860960	         49.96298393	         -0.28191798	          0.00000000	         -0.09351149	          2.51321381	         -8.82423623	          0.75175300	         -0.00066414	          0.00000000	         -0.00003846	          0.00000000	         -0.39517444	          0.00000000	          0.00000000	         -0.03858448	          0.00000000	
          1.56000000	         89.72241928	        691.12424541	         49.86034059	         -0.28136558	          0.00000000	         -0.09353084	          2.84740706	         -3.75544197	          1.31815273	          0.00350872	          0.00000000	          0.00198065	          0.00000000	         -0.32951158	          0.00000000	          0.00000000	         -0.05364825	          0.00000000	
          1.56500000	         93.61575844	        682.68753128	         49.60614534	         -0.28080681	          0.00000000	         -0.09356156	          3.01737598	          4.61188440	          2.03881971	          0.00958307	          0.00000000	          0.00488495	          0.00000000	         -0.25653542	          0.00000000	          0.00000000	         -0.07052205	          0.00000000	
          1.57000000	         97.43457173	        672.27865623	         49.15608194	         -0.28024835	          0.00000000	         -0.09360059	          2.91029489	         17.09094852	          2.91116947	          0.01787342	          0.00000000	          0.00881140	          0.00000000	         -0.17976376	          0.00000000	          0.00000000	         -0.08813737	          0.00000000	
          1.57500000	        101.12650670	        659.80020023	         48.46384450	         -0.27969817	          0.00000000	         -0.09364514	          2.38439373	         34.44275404	          3.91246505	          0.02859693	          0.00000000	          0.01384753	          0.00000000	         -0.10238542	          0.00000000	          0.00000000	         -0.10473652	          0.00000000	
          1.58000000	        104.61906084	        645.15252552	         47.48484433	         -0.27916474	          0.00000000	         -0.09369298	          1.27025142	         57.25304876	          4.99134824	          0.04179216	          0.00000000	          0.01999298	          0.00000000	         -0.02725007	          0.00000000	          0.00000000	         -0.11770395	          0.00000000	
          1.58500000	        107.81719029	        628.23535378	         46.17915146	         -0.27865674	          0.00000000	         -0.09374288	         -0.62377715	         85.76205096	          6.05816341	          0.05721437	          0.00000000	          0.02711038	          0.00000000	          0.04299372	          0.00000000	          0.00000000	         -0.12340889	          0.00000000	
          1.59000000	        110.60316826	        608.95323595	         44.51410953	         -0.27818125	          0.00000000	         -0.09379388	         -3.50035791	        119.64154884	          6.97459168	          0.07420746	          0.00000000	          0.03486570	          0.00000000	          0.10619697	          0.00000000	          0.00000000	         -0.11708529	          0.00000000	
          1.59500000	        112.83944695	        587.22492111	         42.46827216	         -0.27774074	          0.00000000	         -0.09384501	         -7.55437425	        157.73145460	          7.54360710	          0.09164421	          0.00000000	          0.04270427	          0.00000000	          0.16095262	          0.00000000	          0.00000000	         -0.09279301	          0.00000000	
